<?xml version="1.0" encoding="utf-8"?>
<!-- Generator: Adobe Illustrator 15.1.0, SVG Export Plug-In . SVG Version: 6.00 Build 0)  -->
<!DOCTYPE svg PUBLIC "-//W3C//DTD SVG 1.1//EN" "http://www.w3.org/Graphics/SVG/1.1/DTD/svg11.dtd">
<svg version="1.1" id="Layer_1" xmlns="http://www.w3.org/2000/svg" xmlns:xlink="http://www.w3.org/1999/xlink" x="0px" y="0px"
	 width="58px" height="30px" viewBox="0 0 58 30" enable-background="new 0 0 58 30" xml:space="preserve">
<rect x="-5" y="-3" display="none" fill="#F7931E" width="117" height="63"/>
<path fill="#FFFFFF" d="M0,9V6c0-1.036,0.964-2,2-2h2V2c0-1.035,0.964-2,2-2c1.035,0,2,0.965,2,2v2h10V2c0-1.035,0.965-2,2-2
	s2,0.84,2,1.875V4h2c1.035,0,2,0.964,2,2v3H0z M0,11v17c0,1.035,0.964,2,2,2h22.125C25.16,30,26,29.035,26,28V11H0z"/>
<path fill="#FFFFFF" d="M28,15c0-8.284,6.716-15,15-15s15,6.715,15,15s-6.716,15-15,15S28,23.284,28,15z M50.185,19.79
	c0.574-0.862,0.342-2.026-0.52-2.601L45,13.996V6c0-1.035-0.965-2-2-2s-2,0.965-2,2v9c0,0.627,0.438,1.213,0.96,1.561l5.625,3.75
	c0.319,0.214,0.681,0.315,1.038,0.315C49.229,20.625,49.823,20.332,50.185,19.79z"/>
</svg>
